<svg width="99" height="50" viewBox="0 0 99 50" fill="none" xmlns="http://www.w3.org/2000/svg">
<path d="M76.233 32.0761L76.0977 31.5008C76.0977 29.9892 75.9284 28.9401 75.59 28.3535C75.5449 28.3309 75.5111 28.3196 75.4885 28.3196C75.3757 28.3196 75.2967 28.455 75.2516 28.7257C74.9808 29.2672 74.7327 30.0117 74.5071 30.9593C74.4168 31.0496 74.3153 31.388 74.2025 31.9746C73.8641 33.4862 73.6046 34.4225 73.4241 34.7835L73.3564 35.2912C73.1985 35.8101 73.1872 36.1485 73.3226 36.3064C73.3226 36.2162 73.7964 36.0695 74.744 35.8665C75.6915 35.6634 76.1879 35.5506 76.233 35.5281C76.2781 35.5055 76.2894 35.3927 76.2669 35.1896C76.2669 34.9866 76.3345 34.6707 76.4699 34.242C76.515 34.2195 76.4812 34.1405 76.3684 34.0051C76.2781 33.8472 76.2443 33.6103 76.2669 33.2945C76.2217 33.1591 76.1992 32.9673 76.1992 32.7191C76.2217 32.471 76.233 32.2566 76.233 32.0761ZM79.7526 32.313L79.8203 32.8207C79.9557 32.8658 80.0008 32.956 79.9557 33.0914C79.9106 33.2268 79.8993 33.4185 79.9218 33.6667C79.9895 34.5692 80.1023 35.2573 80.2603 35.7311C80.2603 36.0018 80.3054 36.3516 80.3956 36.7802C80.5085 37.1863 80.5536 37.4007 80.531 37.4232C80.5084 37.4458 80.4972 37.536 80.4972 37.694V38.0324C80.3618 37.7391 80.3505 37.9647 80.4633 38.7092C80.5536 38.8897 80.6213 39.1718 80.6664 39.5553C80.7341 39.9388 80.8694 40.6157 81.0725 41.5858C81.5012 43.278 81.7155 44.2143 81.7155 44.3948C81.7155 44.5527 81.6478 44.8234 81.5124 45.207C81.3771 45.568 81.174 45.8274 80.9033 45.9854L79.3804 46.0869C79.0419 45.9966 78.6246 45.7372 78.1282 45.3085C77.8349 45.0152 77.6544 44.6881 77.5867 44.3271L77.1806 43.1764C77.158 43.0411 77.1468 42.838 77.1468 42.5673C77.1242 42.5447 77.0904 42.3981 77.0452 42.1273C77.0904 42.0145 77.034 41.7889 76.876 41.4505V40.8413C76.9437 40.7285 76.8986 40.5142 76.7407 40.1983L76.5714 39.1153C76.6166 39.0251 76.4812 38.8333 76.1653 38.54C75.9397 38.6528 75.6464 38.7431 75.2854 38.8108H74.2025C73.7738 38.8108 73.4128 38.822 73.1195 38.8446C72.9616 38.8446 72.8826 39.2958 72.8826 40.1983C72.8601 40.266 72.8037 40.4239 72.7134 40.6721C72.7134 40.7849 72.6683 40.9654 72.578 41.2136C72.4878 41.4618 72.4427 41.6761 72.4427 41.8566C72.4427 42.0145 72.4201 42.1273 72.375 42.195C72.2622 42.4206 72.1042 42.9621 71.9012 43.8194C71.6981 44.6542 71.5402 45.207 71.4274 45.4777C71.3371 45.7485 71.3259 45.9177 71.3936 45.9854C71.4161 46.053 71.3823 46.1659 71.292 46.3238C71.2018 46.4817 71.1003 46.5945 70.9874 46.6622C70.7393 46.6622 70.4685 46.6058 70.1752 46.493C69.8819 46.3802 69.5322 46.3238 69.1261 46.3238C68.8328 46.2787 68.5734 45.9854 68.3477 45.4439C68.3026 45.286 68.2688 45.1506 68.2462 45.0378C68.2913 44.9701 68.3252 44.8009 68.3477 44.5301C68.1898 44.4173 68.1108 44.203 68.1108 43.8871L68.1447 43.4133C68.1447 43.2103 68.2011 43.0185 68.3139 42.838C68.2913 42.838 68.3365 42.6462 68.4493 42.2627C68.3139 42.1724 68.3929 41.4843 68.6862 40.1983C68.6862 39.8824 68.7877 39.4199 68.9907 38.8108C69.081 38.4047 69.1261 38.1339 69.1261 37.9986C69.1487 37.7955 69.1712 37.6714 69.1938 37.6263C69.2164 37.5586 69.2389 37.4796 69.2615 37.3894C69.5097 36.7125 69.645 36.25 69.6676 36.0018C69.6902 35.7311 69.8706 35.1896 70.2091 34.3774C70.2768 34.242 70.3106 34.039 70.3106 33.7682C70.3106 33.4975 70.3444 33.2832 70.4121 33.1252C70.4798 32.9673 70.5362 32.7868 70.5813 32.5838C70.649 32.3807 70.7393 32.1664 70.8521 31.9408C70.7844 31.8731 70.8069 31.6475 70.9198 31.2639C70.9198 31.1285 71.01 30.8465 71.1905 30.4178C71.371 29.9666 71.4612 29.6846 71.4612 29.5718C71.4838 29.4364 71.5064 29.3462 71.5289 29.301C71.574 29.2334 71.6192 29.1318 71.6643 28.9965C71.7094 28.8611 71.7771 28.7144 71.8673 28.5565C71.9576 28.3986 72.0027 28.2632 72.0027 28.1504C72.0253 28.0376 72.093 27.8458 72.2058 27.5751C72.2058 27.4172 72.2396 27.2141 72.3073 26.9659C72.375 26.8982 72.5216 26.6839 72.7473 26.3229C72.7473 26.1875 72.939 25.9732 73.3226 25.6799C73.7287 25.3866 73.9769 25.1835 74.0671 25.0707L75.8269 24.8C75.8495 24.6195 75.9848 24.3488 76.233 23.9878C76.9324 23.6494 77.6431 23.5366 78.3651 23.6494C78.3877 23.6494 78.4328 23.6606 78.5005 23.6832C78.5907 23.7058 78.6922 23.7283 78.805 23.7509C78.9404 23.7734 79.0871 23.8073 79.245 23.8524C79.4255 23.8975 79.5157 24.0555 79.5157 24.3262L79.4819 28.3535C79.527 28.534 79.5609 29.0077 79.5834 29.7748C79.6285 30.5194 79.6962 31.0609 79.7865 31.3993C79.7865 31.9182 79.7752 32.2228 79.7526 32.313Z" fill="#C14B34" stroke="#C14B34" stroke-width="0.5"/>
<path d="M51.0266 30.0605C51.3199 28.3684 51.6019 27.387 51.8726 27.1163C51.8726 27.0937 51.9065 27.0147 51.9741 26.8794C52.2223 26.4056 52.3577 26.1687 52.3803 26.1687C52.4028 26.1687 52.5495 26.0559 52.8202 25.8302C53.0233 25.5595 53.2602 25.3903 53.5309 25.3226C54.2754 25.2549 54.659 25.2436 54.6815 25.2888C54.7041 25.3113 54.9072 25.3226 55.2907 25.3226C55.6517 25.2775 55.8999 25.2775 56.0352 25.3226C56.1706 25.3677 56.3285 25.4241 56.509 25.4918C56.7121 25.5369 56.949 25.6046 57.2197 25.6949C57.4905 25.7851 57.6822 25.8866 57.795 25.9995C57.9079 26.0897 58.0094 26.4056 58.0996 26.947C58.2124 27.4885 58.314 27.8157 58.4042 27.9285C58.4493 28.4248 58.4832 28.7068 58.5057 28.7745C58.5283 28.8422 58.5509 28.9663 58.5734 29.1468C58.6185 29.5755 58.6749 30.1734 58.7426 30.9404C59.0134 32.9259 59.1487 34.1442 59.1487 34.5954C59.3518 34.7985 59.4646 35.0241 59.4872 35.2723C59.5548 35.7686 59.6451 36.5244 59.7579 37.5397C59.7805 37.5397 59.8594 37.8781 59.9948 38.555C60.1302 39.2093 60.1979 39.6041 60.1979 39.7395C60.2881 39.7846 60.3558 39.9313 60.4009 40.1794C60.5814 40.563 60.7281 40.6081 60.8409 40.3148C60.9085 40.0215 61.1229 39.2093 61.4839 37.8781C61.4839 37.3367 61.5403 37.0659 61.6531 37.0659C61.7208 37.0659 61.732 36.9306 61.6869 36.6598C61.732 36.2537 61.8449 35.8476 62.0253 35.4415C62.3186 34.7646 62.5555 34.0878 62.736 33.4109C62.7135 33.253 62.7248 33.0838 62.7699 32.9033C63.0181 32.249 63.1647 31.6737 63.2098 31.1773C63.1873 30.9292 63.2098 30.7036 63.2775 30.5005C63.3452 30.2749 63.379 30.1282 63.379 30.0605L63.5483 29.0114C63.5483 28.7181 63.6047 28.2895 63.7175 27.7254C63.8303 27.1388 63.9431 26.7665 64.0559 26.6086C64.101 26.383 64.1236 26.1912 64.1236 26.0333C64.2364 25.8979 64.3266 25.7626 64.3943 25.6272C64.4846 25.4918 64.5748 25.3677 64.6651 25.2549C64.7779 24.7586 65.2855 24.6683 66.188 24.9842C66.5264 25.1421 66.7407 25.2549 66.831 25.3226C66.9212 25.3903 67.0115 25.5144 67.1017 25.6949C67.395 26.0107 67.5304 26.2928 67.5078 26.5409C67.4401 26.4732 67.4176 26.5296 67.4401 26.7101C67.4401 26.7553 67.4514 26.8117 67.474 26.8794C67.5642 26.8794 67.5981 27.026 67.5755 27.3193C67.5529 27.59 67.5078 27.7931 67.4401 27.9285C67.395 28.0638 67.3499 28.2443 67.3048 28.4699C67.3048 28.5151 67.2596 28.6956 67.1694 29.0114C67.0791 29.3047 67.034 29.6093 67.034 29.9252C67.034 30.2185 66.8423 30.9404 66.4587 32.0911C66.3459 32.2039 66.2105 32.6213 66.0526 33.3433C65.9172 34.0652 65.8044 34.5052 65.7142 34.6631C65.7819 34.7985 65.6803 35.0467 65.4096 35.4076C65.4547 35.6784 65.4322 35.8702 65.3419 35.983C65.2517 36.0732 65.184 36.2424 65.1388 36.4906C65.1163 36.7388 65.1163 36.8854 65.1388 36.9306C65.184 36.9757 65.1614 37.2013 65.0712 37.6074C65.0035 38.0135 64.9471 38.2617 64.902 38.3519C64.8343 38.3971 64.8004 38.4986 64.8004 38.6565C64.8004 38.8145 64.7327 39.198 64.5974 39.8072C64.462 40.3938 64.3605 40.7322 64.2928 40.8224C64.3379 40.9352 64.2589 41.3188 64.0559 41.9731C63.8528 42.6048 63.7175 43.0448 63.6498 43.2929C63.5144 44.06 63.4016 44.5451 63.3114 44.7482C63.2437 44.9287 63.1083 45.0415 62.9053 45.0866C62.9053 45.0189 62.7473 44.9738 62.4315 44.9512C62.1382 44.9287 61.9125 44.9287 61.7546 44.9512C61.6192 44.9512 61.4726 44.9399 61.3147 44.9174C61.1793 44.8948 61.0326 44.8722 60.8747 44.8497C60.7168 44.8046 60.5701 44.7594 60.4348 44.7143C60.3219 44.6692 60.2204 44.6353 60.1302 44.6128C60.0625 44.5677 60.0399 44.5338 60.0625 44.5113L59.6564 44.342C59.6564 44.4549 59.3518 44.4661 58.7426 44.3759C58.4493 44.3759 58.2124 44.2292 58.0319 43.9359C57.9191 43.8231 57.8515 43.6539 57.8289 43.4283C57.6935 43.4734 57.4792 43.0899 57.1859 42.2777C56.8926 41.4429 56.6895 40.766 56.5767 40.2471C56.4865 39.7056 56.3962 39.2995 56.306 39.0288C56.2383 38.758 56.1706 38.3519 56.1029 37.8105C56.0578 37.269 55.9901 36.9531 55.8999 36.8629C55.945 36.7726 55.9563 36.6373 55.9337 36.4568C55.9112 36.2763 55.7419 35.1369 55.4261 33.0387C55.4261 32.61 55.4148 32.3957 55.3922 32.3957C55.2569 32.3957 55.1892 32.2603 55.1892 31.9896L55.1553 31.5496C55.0877 31.7075 55.0312 31.9896 54.9861 32.3957C54.941 32.9146 54.8508 33.4448 54.7154 33.9863C54.58 34.5052 54.5462 34.7759 54.6139 34.7985L54.377 37.1336C54.377 37.63 54.3093 38.0248 54.1739 38.3181C54.1965 38.3181 54.2077 38.3294 54.2077 38.3519C54.2077 38.4647 54.1852 38.6227 54.1401 38.8257C54.1175 39.0288 54.0949 39.6041 54.0724 40.5517C54.0498 41.4767 54.016 42.2777 53.9709 42.9545C53.9257 43.6314 53.9144 44.0262 53.937 44.139C53.9596 44.2292 53.9144 44.3759 53.8016 44.5789C53.8016 44.8046 53.6775 44.9851 53.4294 45.1204C53.0909 45.4137 52.7074 45.4137 52.2787 45.1204C51.8952 45.0076 51.647 44.9512 51.5342 44.9512C51.444 44.9512 51.3537 44.9287 51.2635 44.8835C51.1281 44.8835 50.9476 44.8722 50.722 44.8497C50.722 44.8948 50.6205 44.8384 50.4174 44.6805C50.3723 44.6805 50.3497 44.5789 50.3497 44.3759C50.3497 44.1503 50.3046 44.0375 50.2143 44.0375C50.1467 44.0375 50.1015 44.0713 50.079 44.139V43.7667C50.1692 43.6765 50.1692 43.5411 50.079 43.3606L50.0451 42.3792C49.9774 42.2213 49.9436 41.9505 49.9436 41.567C49.9436 41.1834 49.9662 40.9691 50.0113 40.924V40.4163C50.079 40.281 50.1128 39.7508 50.1128 38.8257C50.0451 38.194 50.1128 37.5848 50.3159 36.9982C50.2933 36.9531 50.3271 36.6824 50.4174 36.186C50.3497 36.0507 50.3497 35.7461 50.4174 35.2723L50.4851 34.1893L50.6543 33.0387C50.6543 32.8582 50.6769 32.5874 50.722 32.2265C50.925 31.5722 51.0266 30.8502 51.0266 30.0605Z" fill="#C14B34" stroke="#C14B34" stroke-width="0.5"/>
<path d="M48.9892 27.169C49.0569 27.4623 49.0005 27.6653 48.82 27.7782C48.6395 27.8684 48.4478 27.9135 48.2447 27.9135C48.0642 27.9135 47.5679 27.9361 46.7556 27.9812C46.2367 28.094 45.7178 28.2407 45.1989 28.4212H45.165C45.165 28.8273 45.0522 29.4252 44.8266 30.2148C44.8266 30.4856 44.7702 30.9255 44.6574 31.5347C44.6574 31.7152 44.6236 31.8957 44.5559 32.0761C44.4882 32.2566 44.4544 32.5387 44.4544 32.9222C44.2964 33.8472 44.2287 34.3549 44.2513 34.4451C44.2739 34.5354 44.2739 34.6595 44.2513 34.8174C44.2287 34.9753 44.1836 35.2122 44.1159 35.5281C44.0482 35.8439 44.0144 36.2162 44.0144 36.6449C44.0144 37.0735 43.958 37.4571 43.8452 37.7955V38.1678C43.8903 38.98 43.8565 39.5553 43.7437 39.8937C43.6534 40.2322 43.6083 40.5255 43.6083 40.7736C43.6083 40.9993 43.5519 41.3603 43.4391 41.8566C43.3263 42.353 43.2924 42.9396 43.3376 43.6164H43.5406C44.1047 43.5713 44.398 43.56 44.4205 43.5826C44.4656 43.5826 44.6236 43.5487 44.8943 43.481L45.4358 43.5149H45.7742C45.8419 43.5149 45.9885 43.6051 46.2142 43.7856C46.4398 43.9436 46.5977 44.1015 46.688 44.2594C46.8459 44.4174 46.891 44.5753 46.8233 44.7332C46.7782 44.8686 46.53 45.1055 46.0788 45.4439L45.4358 45.647C45.3681 45.7146 45.2102 45.7936 44.962 45.8839C44.7138 45.9741 44.4995 46.0192 44.319 46.0192C43.8001 46.132 43.4955 46.3238 43.4052 46.5945C43.315 46.775 42.7735 46.8427 41.7808 46.7976H40.6302L39.9872 47.0007C39.4231 47.2263 38.9268 47.2827 38.4981 47.1699C38.0694 47.0571 37.7761 46.9668 37.6182 46.8991C37.4828 46.854 37.3136 46.7412 37.1105 46.5607C36.9075 46.4028 36.8172 46.211 36.8398 45.9854C36.8849 45.7823 36.9639 45.4777 37.0767 45.0716C37.4603 44.7558 37.731 44.5527 37.8889 44.4625C38.9719 44.124 39.66 43.8984 39.9533 43.7856C39.9533 43.0411 39.9308 42.6011 39.8856 42.4658C39.9533 42.4432 40.0323 41.9581 40.1225 41.0105C40.1451 40.9203 40.0887 40.706 39.9533 40.3675V40.1645C40.021 39.5328 40.0097 38.9574 39.9195 38.4385C39.9195 38.416 39.9646 38.0211 40.0548 37.254C40.1677 37.1187 40.1677 36.7577 40.0548 36.1711C40.1451 35.7424 40.2241 35.404 40.2917 35.1558L40.3256 34.682C40.3256 34.5466 40.3933 34.1405 40.5286 33.4637V33.1253L40.5963 32.8545C41.0024 31.185 41.2732 29.9666 41.4085 29.1995C41.228 29.2447 41.1152 29.2672 41.0701 29.2672L39.9533 29.4364C39.096 29.6621 38.3402 29.4703 37.6859 28.8611C37.1218 28.094 37.1105 27.4397 37.652 26.8983C37.9905 26.605 38.5094 26.4019 39.2088 26.2891C39.8179 26.086 40.2128 25.9394 40.3933 25.8491C40.6189 25.8491 41.1491 25.601 41.9839 25.1046C42.8186 24.9918 43.3037 24.9354 43.4391 24.9354L45.0297 24.7323C45.2327 24.7098 45.5035 24.7323 45.8419 24.8C46.1803 24.8451 46.3834 24.9128 46.4511 25.0031C46.7444 25.0708 47.1053 25.2061 47.534 25.4092L48.3462 26.1537C48.6621 26.605 48.8764 26.9434 48.9892 27.169Z" fill="#C14B34" stroke="#C14B34" stroke-width="0.5"/>
<path d="M23.4224 33.0463C23.445 33.4298 23.5352 34.321 23.6932 35.7198C23.9413 38.2016 24.088 39.7133 24.1331 40.2547L24.4715 41.8453L24.7423 43.4359C25.2386 42.4432 25.4755 41.8679 25.453 41.71C25.453 41.552 25.6447 40.9654 26.0283 39.9501C26.5698 38.98 26.9195 38.1227 27.0774 37.3781C27.1 37.2428 27.224 36.9156 27.4497 36.3967C27.382 36.329 27.4384 36.1147 27.6189 35.7537C27.7994 35.3701 27.9347 34.964 28.025 34.5354C28.1378 34.1067 28.1942 33.8811 28.1942 33.8585C28.2168 33.8359 28.2393 33.8134 28.2619 33.7908C28.3296 33.7231 28.4198 33.5201 28.5326 33.1817C28.6003 32.8658 28.6341 32.6176 28.6341 32.4371V31.388C28.6341 31.3203 28.6905 31.0834 28.8034 30.6773L28.7695 29.8989C28.7695 29.3575 29.029 28.6581 29.5479 27.8007L30.2247 27.2254C30.2247 27.0223 30.394 26.8983 30.7324 26.8531C31.0934 26.808 31.4092 26.8306 31.68 26.9208C31.9507 27.0111 32.1312 27.0562 32.2214 27.0562C32.3117 27.1464 32.6388 27.2592 33.2029 27.3946C33.4736 27.4849 33.6428 27.6541 33.7105 27.9022C33.8008 28.1504 33.8459 28.4888 33.8459 28.9175L33.609 31.5572C33.609 31.7152 33.5413 32.8094 33.4059 34.8399L33.4398 35.9229C33.4172 35.968 33.4059 36.3516 33.4059 37.0735V38.8333C33.4059 39.1718 33.4059 39.3861 33.4059 39.4764L33.5075 40.7624C33.4172 40.7624 33.5526 41.7664 33.9136 43.7743C33.9136 44.0902 34.0264 44.7783 34.252 45.8387C34.5002 46.8766 34.5679 47.7452 34.455 48.4446C34.455 48.8056 34.1279 49.1327 33.4736 49.426C32.9773 49.3358 32.6727 49.1891 32.5599 48.9861C32.3568 48.8733 32.2327 48.783 32.1876 48.7153L31.9169 48.3769C31.5559 48.0836 31.2626 47.7339 31.037 47.3278C30.879 47.1699 30.7662 46.9443 30.6985 46.6509C30.4729 46.3351 30.3375 45.9403 30.2924 45.4665C30.2473 44.9927 30.1571 44.6655 30.0217 44.485C29.9089 44.282 29.8186 44.0902 29.7509 43.9097C29.5028 43.6615 29.3448 43.2216 29.2772 42.5899C29.2095 41.9356 29.1418 41.3715 29.0741 40.8977C29.0741 40.627 29.0854 40.4239 29.1079 40.2886C29.0403 40.1081 28.9951 39.9727 28.9726 39.8825C28.9726 39.7922 28.9613 39.6907 28.9387 39.5779L28.8034 40.2209C28.7357 40.3337 28.589 40.7736 28.3634 41.5407L27.6527 43.7405L27.0436 45.8726C26.9307 45.9403 26.7954 46.211 26.6374 46.6848C26.4344 47.2037 26.3103 47.4857 26.2652 47.5309C26.2426 47.576 26.2088 47.6437 26.1636 47.7339C25.9832 48.0949 25.7801 48.3882 25.5545 48.6138C24.9453 49.1778 24.3136 49.3358 23.6593 49.0876C23.0276 48.862 22.5651 48.4108 22.2718 47.7339C22.1138 47.3504 21.9897 47.1022 21.8995 46.9894C21.8769 46.8089 21.7529 46.493 21.5272 46.0418C21.3693 45.6131 21.2452 45.0716 21.155 44.4173C21.0422 44.2143 20.9632 43.8646 20.9181 43.3682C20.8053 43.1652 20.7263 42.8719 20.6812 42.4883C20.6361 42.1048 20.5684 41.7325 20.4781 41.3715C20.3653 40.988 20.2863 40.5255 20.2412 39.984C20.1961 39.5779 20.0269 38.8333 19.7336 37.7504C19.6659 37.6827 19.5757 37.4571 19.4628 37.0735C19.4177 37.4345 19.3952 37.6376 19.3952 37.6827C19.3952 37.7053 19.3049 38.258 19.1244 39.341C19.1695 39.3861 19.1583 39.7245 19.0906 40.3563C18.9552 40.7849 18.8762 41.2362 18.8537 41.71C18.6732 42.9283 18.5942 43.842 18.6168 44.4512C18.6845 44.6542 18.6845 44.9024 18.6168 45.1957C18.5717 45.4665 18.5265 45.7485 18.4814 46.0418C18.4589 46.3125 18.4137 46.5607 18.346 46.7863V47.0232C18.2784 47.7226 18.2671 48.1175 18.3122 48.2077C18.3122 48.4559 18.2107 48.7605 18.0076 49.1214C17.8271 49.4824 17.5338 49.6178 17.1277 49.5276C16.4057 49.3471 15.9884 49.2117 15.8755 49.1214C15.6274 48.7153 15.5033 48.3544 15.5033 48.0385V46.4141L15.571 45.8049C15.5484 45.7372 15.5597 45.4777 15.6048 45.0265C15.5822 45.004 15.571 44.8235 15.571 44.485C15.571 44.124 15.5371 43.8533 15.4694 43.6728V43.3344C15.4243 42.5673 15.413 42.1273 15.4356 42.0145C15.4807 41.8792 15.4807 41.5971 15.4356 41.1685C15.5258 41.1685 15.5822 40.9993 15.6048 40.6608C15.6274 40.2999 15.6612 39.9163 15.7063 39.5102L15.9432 39.4087C15.8981 39.3861 15.8868 39.0702 15.9094 38.4611C15.932 38.3031 15.9884 37.897 16.0786 37.2428C16.1688 36.5885 16.2027 36.1485 16.1801 35.9229C16.1801 35.6747 16.3042 35.2912 16.5524 34.7723C17.0262 33.3509 17.2744 32.4484 17.2969 32.0649C17.3421 31.6813 17.4097 31.3429 17.5 31.0496C17.5902 30.3051 17.8046 29.6846 18.143 29.1883C18.3009 28.6919 18.5942 28.3986 19.0229 28.3084L19.429 28.0038H19.4628C19.8915 27.6879 20.6586 27.6428 21.7641 27.8684C22.7117 28.2971 23.2306 28.8273 23.3209 29.459C23.2306 29.7749 23.2645 30.8691 23.4224 32.7417V33.0463Z" fill="#C14B34" stroke="#C14B34" stroke-width="0.5"/>
<path d="M92.1582 49.0474L91.2279 49.1213C90.4341 49.2935 89.045 48.9736 87.0605 48.1617C86.9613 48.1617 86.9117 48.174 86.9117 48.1986C86.0435 47.7311 85.4853 47.3744 85.2373 47.1283C84.2947 45.7259 83.8109 44.631 83.7861 43.8436C83.7861 43.7206 83.997 43.4254 84.4187 42.9579C84.4435 42.8841 84.6295 42.7611 84.9768 42.5888C85.3489 42.4166 85.6838 42.3182 85.9815 42.2936C86.3784 42.3428 86.6512 42.4658 86.8001 42.6626L87.5814 43.696L87.9907 44.1389L88.6605 44.6925L89.1814 45.2092L89.9256 45.7997C90.0248 45.8489 90.1117 45.8858 90.1861 45.9104C90.2853 45.9104 90.4589 45.935 90.707 45.9842C90.9799 46.0088 91.1783 45.9965 91.3023 45.9473C91.4264 45.8981 91.5876 45.8489 91.7861 45.7997C91.9845 45.7259 92.1581 45.6521 92.307 45.5782C92.6295 45.2584 92.8279 45.0739 92.9023 45.0246L93.386 44.4341C93.4357 44.3849 93.5101 44.1758 93.6093 43.8067C93.6093 43.4869 93.6093 43.2777 93.6093 43.1793C93.6341 43.0809 93.6341 42.9948 93.6093 42.921C93.5845 42.8226 93.5597 42.7118 93.5349 42.5888C93.5101 42.4658 93.4853 42.3674 93.4605 42.2936C93.4357 42.1952 93.2496 41.9983 92.9023 41.7031C92.7535 41.4078 92.5426 41.1003 92.2698 40.7804C92.1954 40.7066 91.5876 40.399 90.4465 39.8577L89.3303 39.2672L88.6605 38.7137C88.2636 38.5906 87.9163 38.3938 87.6187 38.1231C87.3458 37.8525 87.1846 37.7049 87.1349 37.6803C86.7877 37.5572 86.2047 37.0529 85.3861 36.1671C85.3861 36.1425 85.1629 35.6873 84.7164 34.8016L84.3071 33.3622L84.4559 32.4027C84.2574 31.9106 84.183 31.4308 84.2326 30.9633C84.3319 30.8157 84.4435 30.5204 84.5675 30.0775C84.5179 29.8561 84.6047 29.5116 84.828 29.0442C85.076 28.5521 85.2373 28.2568 85.3117 28.1584C85.3861 28.06 85.4481 27.9616 85.4977 27.8632C85.4977 27.6909 86.0311 27.0758 87.0977 26.0178L88.921 25.0214C90.2605 24.8737 91.1163 24.7999 91.4884 24.7999C92.3566 24.8737 92.9519 24.9968 93.2744 25.169C93.8202 25.5135 94.2419 25.7964 94.5395 26.0178C95.631 26.9528 96.2511 27.7893 96.4 28.5275C96.9209 29.9053 96.9953 31.2462 96.6232 32.5503C96.6232 32.6733 96.2759 32.8824 95.5814 33.1777H94.6511C94.2543 33.1777 93.8946 33.1039 93.5721 32.9562C93.2496 32.784 92.8403 32.4765 92.3442 32.0336C92.1457 31.9352 91.9845 31.603 91.8605 31.0371C91.8357 30.4466 91.6992 30.0898 91.4512 29.9668C91.4264 29.9422 91.3272 29.7208 91.1535 29.3025L90.7442 28.8596C90.5706 28.6382 90.4093 28.5275 90.2605 28.5275C90.1365 28.5275 89.9876 28.5767 89.814 28.6751C89.4667 28.9457 89.1566 29.3025 88.8838 29.7454C88.6357 30.1883 88.4993 30.6804 88.4745 31.2216C88.4745 31.7629 88.5117 32.1812 88.5861 32.4765C88.6605 32.7717 88.859 33.1531 89.1814 33.6206C89.5039 34.0634 89.7024 34.2849 89.7768 34.2849C89.8512 34.4079 90.3349 34.8754 91.2279 35.6873L92.8279 36.7945L93.4605 37.385L94.2046 37.8279C94.6015 37.9755 94.9984 38.197 95.3953 38.4922C95.7922 38.7629 96.0403 38.9843 96.1395 39.1565L96.6976 39.7101L97.2558 40.4852C97.4046 40.6574 97.6279 41.3094 97.9255 42.4412L98 43.8805L97.8139 44.7294C97.7395 44.8032 97.6155 45.0616 97.4418 45.5044C97.4666 45.5782 97.3426 45.9104 97.0697 46.5009C96.9953 46.6485 96.6976 46.9315 96.1767 47.3498C95.6806 47.7434 95.3829 47.9649 95.2837 48.0141C95.2589 48.0879 95.0108 48.2109 94.5395 48.3831C94.4651 48.4569 94.2419 48.5554 93.8698 48.6784C93.5225 48.7768 93.1752 48.8137 92.8279 48.7891L92.1582 49.0474Z" fill="#C14B34" stroke="#C14B34" stroke-width="0.5"/>
<path d="M83.407 8.46964L83.6003 8.45353C83.6647 8.45353 83.7882 8.43205 83.9707 8.3891C84.1533 8.34615 84.513 8.29783 85.0499 8.24414C85.4794 8.31931 85.8284 8.39984 86.0968 8.48574C86.6122 8.77567 86.9397 9.07633 87.0793 9.38773C87.1652 9.47363 87.2082 9.52732 87.2082 9.5488C87.2082 9.57027 87.2189 9.59712 87.2404 9.62933C87.4766 10.2843 87.5625 10.7514 87.4981 11.0306C87.4766 11.2669 87.4874 11.4065 87.5303 11.4494C87.5518 11.5246 87.525 11.5997 87.4498 11.6749C87.3854 11.7501 87.2726 11.8038 87.1116 11.836C87.0471 11.8682 86.9612 11.8897 86.8538 11.9004C86.5961 11.9756 86.4297 11.9863 86.3545 11.9326C86.1183 11.9111 85.9733 11.7877 85.9196 11.5622L85.8069 11.3367C85.7425 11.2185 85.7103 11.0736 85.7103 10.9018L85.6458 10.3219C85.6244 10.3005 85.5975 10.2575 85.5653 10.1931C85.4579 9.96758 85.3774 9.82262 85.3237 9.75819C85.0016 9.51122 84.6042 9.52195 84.1318 9.7904C83.9492 10.1125 83.858 10.3327 83.858 10.4508L83.6969 10.9179C83.6754 10.9608 83.6701 11.0306 83.6808 11.1273C83.6378 11.5353 83.6647 11.8413 83.7613 12.0454C83.7613 12.1527 83.8526 12.3084 84.0351 12.5125L84.4056 12.8346C84.6204 12.9527 84.7277 13.0279 84.7277 13.0601L85.0982 13.2373L85.2432 13.3822C85.7693 13.6722 86.0539 13.8869 86.0968 14.0265L86.6283 14.6386L86.87 15.1379C86.9022 15.1916 86.9397 15.3634 86.9827 15.6533C87.0256 15.9325 87.0364 16.1258 87.0149 16.2332C87.0579 16.3298 87.0525 16.4962 86.9988 16.7325C87.0525 16.9257 86.9773 17.1996 86.7733 17.5539C86.7733 17.5861 86.6981 17.7096 86.5478 17.9244C86.3975 18.1284 86.2579 18.2948 86.129 18.4237C86.0002 18.5418 85.7962 18.6921 85.517 18.8747C85.4633 18.9821 85.2163 19.0572 84.7761 19.1002C84.6365 19.1646 84.4915 19.1539 84.3412 19.068C84.2338 19.0894 84.1372 19.0841 84.0512 19.0519C83.9761 19.0196 83.8258 18.9713 83.6003 18.9069L83.2137 18.8747L82.9238 18.7619C82.8916 18.7082 82.6714 18.5418 82.2634 18.2626C82.1775 18.2626 82.0969 18.2089 82.0218 18.1016C81.9574 17.9834 81.8876 17.8761 81.8124 17.7794C81.6621 17.6076 81.5869 17.4304 81.5869 17.2479C81.5225 17.1405 81.5225 17.0063 81.5869 16.8452C81.7694 16.4372 82.1292 16.3298 82.6661 16.5231C82.9023 16.6627 83.0634 16.7754 83.1493 16.8613L83.7935 17.3928C84.2123 17.6291 84.5613 17.6398 84.8405 17.4251L85.066 17.0707C85.0875 16.9955 85.0982 16.8452 85.0982 16.6197C85.0982 16.3942 85.0875 16.2385 85.066 16.1526C85.0445 16.056 84.9801 15.9056 84.8727 15.7016C84.7331 15.5083 84.6579 15.401 84.6472 15.3795L84.3895 15.1379C84.3358 15.1271 84.266 15.1057 84.1801 15.0735C84.1049 15.0412 84.0566 15.0198 84.0351 15.009C84.0244 14.9983 83.96 14.9714 83.8419 14.9285C83.7237 14.8748 83.5841 14.7406 83.4231 14.5258C83.4123 14.5258 83.3425 14.4882 83.2137 14.4131C83.1707 14.3916 83.015 14.2896 82.7466 14.107C82.5748 14.0426 82.462 13.9299 82.4083 13.7688L82.1506 13.5272C82.1506 13.4413 82.1292 13.3769 82.0862 13.3339C82.0433 13.291 82.0164 13.2588 82.0057 13.2373C82.0057 13.2051 82.0003 13.1782 81.9896 13.1567C81.9574 13.0064 81.9305 12.899 81.909 12.8346C81.8446 12.7809 81.7909 12.6896 81.748 12.5608C81.705 12.4319 81.6889 12.3192 81.6996 12.2225C81.646 12.1366 81.6298 11.9165 81.6513 11.5622V11.2722C81.6513 11.036 81.6674 10.8642 81.6996 10.7568C81.7855 10.6602 81.8124 10.4991 81.7802 10.2736C81.7802 10.2414 81.7963 10.2038 81.8285 10.1609L82.1828 9.46826C82.2258 9.42531 82.2795 9.37699 82.3439 9.3233C82.4191 9.25887 82.4942 9.16223 82.5694 9.03338L82.956 8.71124C82.956 8.67903 83.0419 8.61997 83.2137 8.53406C83.2996 8.51259 83.364 8.49111 83.407 8.46964Z" fill="#232D18" stroke="#232D18" stroke-width="0.5"/>
<path d="M74.8249 14.1862C74.8478 14.1625 74.9793 14.1387 75.2196 14.1149C75.4713 14.0793 75.763 13.9724 76.0948 13.7942C76.1063 13.7942 76.1006 13.6516 76.0777 13.3665C76.0433 12.8675 76.0147 12.5111 75.9919 12.2973C75.969 12.0121 75.9461 11.8102 75.9232 11.6914C75.9232 11.4657 75.8374 10.9964 75.6658 10.2836L74.9107 12.9388C74.7505 13.6754 74.6876 14.1268 74.7219 14.2931L74.8249 14.1862ZM72.5081 14.703L72.6111 13.9189C72.6111 13.7645 72.6339 13.61 72.6797 13.4556C72.6797 13.2536 72.7769 12.9507 72.9714 12.5468C72.9714 12.523 73.0229 12.3686 73.1259 12.0834C73.1259 12.0597 73.2346 11.7092 73.452 11.032L73.6579 10.5152C73.6579 10.4677 73.6865 10.3786 73.7437 10.2479C73.8009 10.1054 73.841 9.96875 73.8638 9.83807C73.8982 9.6955 73.9382 9.55888 73.984 9.4282C74.1441 9.10743 74.2872 8.83419 74.413 8.60846C74.6533 8.13325 75.0995 7.91941 75.7516 7.96693L76.3008 8.02039C76.644 8.11543 76.9071 8.21641 77.0902 8.32334C77.3533 8.43026 77.5307 8.54906 77.6222 8.67974C77.7137 8.79854 77.7538 9.00051 77.7423 9.28563C77.7538 9.4282 77.7881 10.046 77.8453 11.1389C77.9025 12.2319 77.9311 12.7844 77.9311 12.7962L78.0169 13.5625C78.0169 13.6338 78.1428 14.4892 78.3945 16.1286L78.772 17.3761C79.0008 18.0414 79.121 18.3918 79.1324 18.4275C79.1553 18.4512 79.2068 18.576 79.2869 18.8017C79.4127 19.1937 79.304 19.4551 78.9608 19.5858C78.6519 19.6333 78.4231 19.6036 78.2743 19.4967C78.2171 19.4967 78.0856 19.4432 77.8796 19.3363C77.8567 19.2769 77.7881 19.2175 77.6737 19.1581C77.5707 19.1106 77.5021 19.069 77.4677 19.0334C77.3419 18.9977 77.2275 18.8136 77.1245 18.4809C77.0902 18.4572 77.0273 18.3621 76.9357 18.1958C76.8557 18.0295 76.8328 17.8929 76.8671 17.7859C76.787 17.679 76.747 17.4592 76.747 17.1266C76.644 16.9484 76.5925 16.6692 76.5925 16.289C76.5925 15.9089 76.5353 15.6119 76.4209 15.398C75.8374 15.6713 75.2139 15.8198 74.5503 15.8435C74.4244 15.8435 74.3615 15.8673 74.3615 15.9148C74.3615 16.0217 74.3272 16.2118 74.2586 16.485L73.9668 18.4453C74.0812 19.3244 73.9783 19.7878 73.6579 19.8353C73.5664 19.8353 73.4119 19.859 73.1945 19.9066C72.9886 19.9541 72.817 19.9125 72.6797 19.7818C72.4166 19.6274 72.2278 19.467 72.1134 19.3007C72.0104 19.1462 71.9646 18.968 71.9761 18.7661C71.9875 18.5997 72.0161 18.2433 72.0619 17.6968C72.0848 17.6731 72.0905 17.5424 72.079 17.3048C72.079 17.0553 72.0962 16.8652 72.1305 16.7345L72.4051 15.6297C72.4394 15.6059 72.4852 15.4277 72.5424 15.0951C72.531 15.0713 72.5252 15.0119 72.5252 14.9169L72.5081 14.703Z" fill="#232D18" stroke="#232D18" stroke-width="0.5"/>
<path d="M67.905 15.3119C67.9695 15.1831 68.0124 14.9469 68.0339 14.6032C68.0554 14.2596 68.0769 14.0234 68.0983 13.8945C68.0983 12.6382 67.7547 11.8168 67.0675 11.4302C66.7883 11.2691 66.5199 11.2262 66.2621 11.3013C66.144 11.3013 65.9615 11.3765 65.7145 11.5268C65.7038 11.6772 65.6984 11.9295 65.6984 12.2839L65.6179 12.8798L65.4729 14.3616C65.4729 14.3831 65.4622 14.5388 65.4407 14.8287C65.2796 16.5146 65.1991 17.7763 65.1991 18.6139C65.3924 18.5709 65.5588 18.4796 65.6984 18.34C66.0742 18.0286 66.2836 17.8622 66.3266 17.8407L66.5521 17.6313C66.6058 17.6206 66.7453 17.4917 66.9708 17.2448V17.2287L67.2769 16.826L67.599 16.1656C67.6849 16.0475 67.7869 15.7629 67.905 15.3119ZM63.2502 17.7441C63.2287 17.7011 63.2179 17.626 63.2179 17.5186C63.2179 17.4005 63.234 17.2662 63.2663 17.1159C63.2985 16.9656 63.3146 16.7884 63.3146 16.5844C63.3146 16.3804 63.3468 16.1173 63.4112 15.7952C63.3683 15.7307 63.3736 15.4891 63.4273 15.0703C63.481 14.9737 63.5025 14.8448 63.4918 14.6838C63.481 14.5227 63.4757 14.3939 63.4757 14.2972C63.4757 13.8355 63.4864 13.5724 63.5079 13.508C63.5293 13.4435 63.5347 13.3147 63.524 13.1214C63.5884 13.057 63.6421 12.8046 63.685 12.3644C63.32 12.3751 63.0461 12.2785 62.8636 12.0745C62.681 11.8597 62.5307 11.559 62.4126 11.1725C62.4233 11.108 62.4341 11.049 62.4448 10.9953C62.4663 10.9309 62.4824 10.8772 62.4931 10.8342C62.5039 10.7913 62.5253 10.7483 62.5576 10.7054C62.5898 10.6517 62.6112 10.6141 62.622 10.5926C62.6435 10.5604 62.681 10.5228 62.7347 10.4799C62.7884 10.4262 62.826 10.394 62.8475 10.3832C62.869 10.3618 62.9173 10.3295 62.9924 10.2866C63.0676 10.2329 63.1159 10.2007 63.1374 10.19C63.1589 10.1685 63.2126 10.1309 63.2985 10.0772C63.3951 10.0128 63.4595 9.96983 63.4918 9.94835C63.524 9.89466 63.6099 9.85708 63.7495 9.83561C63.8891 9.80339 64.0985 9.72823 64.3776 9.61011C64.4206 9.56716 64.6729 9.49736 65.1347 9.40072C65.5964 9.29334 66.0474 9.33092 66.4876 9.51347C66.7346 9.51347 66.9118 9.53494 67.0192 9.5779C67.1265 9.67454 67.2715 9.74433 67.4541 9.78729L68.2755 10.2222C68.3936 10.3403 68.6352 10.6195 69.0003 11.0597C69.3976 11.7684 69.65 12.4879 69.7573 13.2181C69.7681 13.4221 69.7734 13.7818 69.7734 14.2972C69.6768 15.2744 69.4996 15.9831 69.2419 16.4233C69.2204 16.5522 69.1614 16.7132 69.0647 16.9065C69.0647 16.928 68.9896 17.0622 68.8392 17.3092C68.6996 17.5454 68.5386 17.7817 68.356 18.0179C68.1735 18.2434 68.0554 18.3937 68.0017 18.4689C67.5614 18.8769 67.3145 19.1024 67.2608 19.1454C67.0138 19.3279 66.8742 19.4246 66.842 19.4353C66.0259 19.8433 65.591 20.0635 65.5373 20.0957C65.4944 20.1279 65.3655 20.1655 65.1508 20.2084C64.8394 20.2407 64.6461 20.2245 64.5709 20.1601C64.3991 20.085 64.2434 19.9722 64.1038 19.8219C64.0609 19.8111 63.975 19.7252 63.8461 19.5642C63.6743 19.4353 63.5777 19.3601 63.5562 19.3387C63.4166 19.1346 63.3146 18.7481 63.2502 18.179C63.2394 18.136 63.2394 17.9911 63.2502 17.7441Z" fill="#232D18" stroke="#232D18" stroke-width="0.5"/>
<path d="M36.7308 7.74359C36.7481 7.93466 36.7568 8.09099 36.7568 8.21258L36.7829 8.68157L36.9652 12.7201L36.9392 13.163C36.9739 13.1978 37.0347 13.2151 37.1216 13.2151C37.469 13.2151 37.7816 13.137 38.0596 12.9806C38.1117 12.8938 38.2333 12.8069 38.4243 12.7201C38.4938 12.6506 38.572 12.5985 38.6588 12.5638C38.6588 12.529 38.7457 12.4682 38.9194 12.3814C39.0236 12.2424 39.1452 12.1295 39.2841 12.0427C39.4231 11.9384 39.5013 11.869 39.5186 11.8342C39.9355 11.2958 40.2221 10.6357 40.3785 9.85404C40.4306 9.6456 40.4566 9.44585 40.4566 9.25478C40.4914 9.06371 40.4914 8.86395 40.4566 8.65551C40.4219 8.4297 40.4045 8.18652 40.4045 7.92597C40.3524 7.5612 40.2916 7.28328 40.2221 7.09221C40.1353 6.97062 40.0745 6.81429 40.0397 6.62322C39.7966 6.18897 39.4405 5.87631 38.9715 5.68524C38.8499 5.63313 38.6762 5.61576 38.4504 5.63313L38.1638 5.58102C37.7816 5.58102 37.3734 5.62445 36.9392 5.7113C36.5049 5.79815 36.2791 5.90237 36.2618 6.02396C36.2618 6.0587 36.2878 6.08475 36.3399 6.10212C36.4268 6.10212 36.531 6.21503 36.6526 6.44084L36.7308 7.0401V7.74359ZM35.7407 3.28818L36.5484 3.18396C36.6526 3.18396 36.7915 3.20133 36.9652 3.23607C37.2084 3.23607 37.4863 3.26213 37.799 3.31424C38.5807 3.31424 39.1452 3.37503 39.4926 3.49662C39.8574 3.61821 40.2655 3.73112 40.7172 3.83534C41.1688 3.93956 41.7854 4.2609 42.5671 4.79937L42.8537 5.08598C42.8884 5.08598 42.9318 5.11203 42.984 5.16414C43.0534 5.21625 43.1055 5.25099 43.1403 5.26836C43.4703 5.85894 43.6614 6.48426 43.7135 7.14432C43.7482 7.26591 43.7569 7.37882 43.7396 7.48304V7.87386C43.7917 8.01282 43.809 8.19521 43.7917 8.42102C43.7743 8.64683 43.7482 8.79447 43.7135 8.86395C43.7135 9.05502 43.6874 9.19398 43.6353 9.28083C43.6006 9.36768 43.5832 9.43716 43.5832 9.48927C43.5832 9.52401 43.5224 9.76719 43.4008 10.2188C43.2966 10.6531 43.2184 10.931 43.1663 11.0526C43.1142 11.1742 42.8016 11.5824 42.2284 12.2772C41.881 12.6246 41.6638 12.8677 41.577 13.0067L41.2383 13.5539C40.3698 14.7003 39.0844 15.2214 37.3821 15.1172C37.3474 15.0998 37.2171 15.0911 36.9913 15.0911L37.0174 16.7586L36.9913 18.0874V18.5304C36.9913 18.7562 36.9739 18.9386 36.9392 19.0775C36.9218 19.2165 36.9131 19.3641 36.9131 19.5205C36.8958 19.7636 36.8697 19.9113 36.835 19.9634C36.696 20.276 36.4441 20.4324 36.0794 20.4324C35.4019 20.4324 35.0285 20.389 34.959 20.3021C34.9416 20.3021 34.7679 20.2239 34.4379 20.0676C34.16 19.8939 33.9776 19.6681 33.8908 19.3902C33.7171 18.8517 33.6563 18.4261 33.7084 18.1135C33.7431 17.8703 33.7431 17.3318 33.7084 16.4981C33.6563 16.3591 33.6302 16.1854 33.6302 15.977C33.6649 15.9075 33.6823 15.7512 33.6823 15.508V15.065C33.7865 14.1618 33.8386 13.6146 33.8386 13.4236C33.8386 13.2325 33.856 13.1022 33.8908 13.0328C33.9255 12.9459 33.9429 12.503 33.9429 11.7039C33.9429 10.7833 33.8908 10.0104 33.7865 9.38505L33.7605 8.99423C33.7605 8.75105 33.7431 8.50787 33.7084 8.26469V8.00414L33.6302 6.90983C33.6302 6.7535 33.6041 6.63191 33.552 6.54506C33.4999 6.51032 33.3436 6.44084 33.083 6.33662C32.8399 6.2324 32.6314 6.11081 32.4577 5.97185C32.3014 5.83289 32.2406 5.60708 32.2753 5.29442C32.3101 4.8428 32.5706 4.4954 33.057 4.25221C33.0396 4.25221 33.0657 4.20879 33.1352 4.12194C33.222 4.03509 33.3523 3.95693 33.526 3.88745C33.7171 3.8006 33.8908 3.71375 34.0471 3.6269C34.4813 3.50531 34.794 3.44451 34.9851 3.44451C35.1935 3.44451 35.4454 3.3924 35.7407 3.28818Z" fill="#232D18" stroke="#232D18" stroke-width="0.5"/>
<path d="M23.5323 11.0377C23.5671 11.003 23.7668 10.9683 24.1316 10.9335C24.5137 10.8814 24.9567 10.7251 25.4604 10.4645C25.4778 10.4645 25.4691 10.2561 25.4343 9.8392C25.3822 9.10966 25.3388 8.58856 25.3041 8.2759C25.2693 7.85902 25.2346 7.56373 25.1998 7.39003C25.1998 7.06 25.0696 6.37388 24.809 5.33168L23.6626 9.21388C23.4194 10.2908 23.3239 10.9509 23.376 11.1941L23.5323 11.0377ZM20.0149 11.7933L20.1712 10.6469C20.1712 10.4211 20.206 10.1953 20.2755 9.96948C20.2755 9.67419 20.4231 9.23125 20.7184 8.64067C20.7184 8.60593 20.7966 8.38012 20.9529 7.96324C20.9529 7.9285 21.1179 7.41609 21.4479 6.426L21.7606 5.6704C21.7606 5.60092 21.804 5.47064 21.8909 5.27957C21.9777 5.07113 22.0385 4.87138 22.0732 4.68031C22.1254 4.47187 22.1862 4.27211 22.2556 4.08104C22.4988 3.61205 22.7159 3.21254 22.907 2.88251C23.2718 2.18771 23.9492 1.87505 24.9393 1.94453L25.7731 2.0227C26.2942 2.16166 26.6937 2.3093 26.9716 2.46563C27.3711 2.62196 27.6403 2.79566 27.7793 2.98673C27.9183 3.16043 27.9791 3.45572 27.9617 3.8726C27.9791 4.08104 28.0312 4.98428 28.118 6.58233C28.2049 8.18037 28.2483 8.98807 28.2483 9.00544L28.3786 10.1258C28.3786 10.23 28.5696 11.4807 28.9518 13.8777L29.525 15.7016C29.8724 16.6743 30.0548 17.1867 30.0721 17.2388C30.1069 17.2736 30.185 17.456 30.3066 17.786C30.4977 18.3592 30.3327 18.7413 29.8116 18.9324C29.3426 19.0019 28.9952 18.9585 28.7694 18.8021C28.6825 18.8021 28.4828 18.724 28.1701 18.5676C28.1354 18.4808 28.0312 18.3939 27.8575 18.3071C27.7011 18.2376 27.5969 18.1768 27.5448 18.1247C27.3537 18.0726 27.18 17.8034 27.0237 17.317C26.9716 17.2823 26.8761 17.1433 26.7371 16.9001C26.6155 16.6569 26.5808 16.4572 26.6329 16.3008C26.5113 16.1445 26.4505 15.8232 26.4505 15.3368C26.2942 15.0763 26.216 14.6681 26.216 14.1122C26.216 13.5564 26.1291 13.1221 25.9554 12.8095C25.0696 13.209 24.1229 13.4261 23.1154 13.4608C22.9244 13.4608 22.8288 13.4956 22.8288 13.5651C22.8288 13.7214 22.7767 13.9993 22.6725 14.3988L22.2296 17.2649C22.4033 18.5503 22.2469 19.2277 21.7606 19.2972C21.6216 19.2972 21.3871 19.3319 21.0571 19.4014C20.7444 19.4709 20.4839 19.4101 20.2755 19.219C19.8759 18.9932 19.5893 18.7587 19.4156 18.5155C19.2593 18.2897 19.1898 18.0292 19.2072 17.7339C19.2246 17.4907 19.268 16.9696 19.3375 16.1706C19.3722 16.1358 19.3809 15.9448 19.3635 15.5974C19.3635 15.2326 19.3896 14.9547 19.4417 14.7636L19.8586 13.1482C19.9107 13.1134 19.9802 12.8529 20.067 12.3665C20.0496 12.3318 20.041 12.2449 20.041 12.106L20.0149 11.7933Z" fill="#232D18" stroke="#232D18" stroke-width="0.5"/>
<path d="M8.17591 7.39654C8.19616 7.74836 8.27712 8.56581 8.41882 9.8489C8.64149 12.1253 8.77306 13.5119 8.81355 14.0086L9.11718 15.4676L9.36009 16.9266C9.80542 16.016 10.018 15.4883 9.99772 15.3434C9.99772 15.1986 10.1698 14.6605 10.5139 13.7292C10.9997 12.8393 11.3135 12.0529 11.4552 11.37C11.4754 11.2458 11.5867 10.9457 11.7892 10.4697C11.7284 10.4077 11.7791 10.2111 11.941 9.87994C12.1029 9.52813 12.2244 9.15562 12.3054 8.76241C12.4066 8.36921 12.4572 8.16226 12.4572 8.14156C12.4774 8.12087 12.4977 8.10017 12.5179 8.07948C12.5786 8.01739 12.6596 7.83114 12.7608 7.52071C12.8215 7.23098 12.8519 7.00334 12.8519 6.83778V5.87546C12.8519 5.81337 12.9025 5.59608 13.0037 5.22357L12.9733 4.50959C12.9733 4.01291 13.2061 3.37136 13.6717 2.58495L14.279 2.05723C14.279 1.87098 14.4308 1.75715 14.7344 1.71576C15.0583 1.67437 15.3417 1.69507 15.5846 1.77785C15.8275 1.86063 15.9895 1.90202 16.0704 1.90202C16.1514 1.9848 16.4449 2.08827 16.951 2.21244C17.1939 2.29522 17.3457 2.45044 17.4064 2.67808C17.4874 2.90573 17.5279 3.21615 17.5279 3.60936L17.3153 6.03067C17.3153 6.17554 17.2546 7.17925 17.1332 9.0418L17.1635 10.0352C17.1433 10.0765 17.1332 10.4284 17.1332 11.0906V12.7048C17.1332 13.0152 17.1332 13.2118 17.1332 13.2946L17.2242 14.4742C17.1433 14.4742 17.2647 15.3952 17.5886 17.237C17.5886 17.5267 17.6898 18.1579 17.8922 19.1306C18.1149 20.0826 18.1756 20.8793 18.0744 21.5209C18.0744 21.852 17.7809 22.1521 17.1939 22.4211C16.7485 22.3383 16.4753 22.2038 16.3741 22.0176C16.1919 21.9141 16.0806 21.8313 16.0401 21.7692L15.7972 21.4588C15.4733 21.1898 15.2101 20.869 15.0077 20.4965C14.866 20.3516 14.7648 20.1447 14.7041 19.8756C14.5016 19.5859 14.3802 19.2237 14.3397 18.7891C14.2992 18.3545 14.2183 18.0545 14.0968 17.8889C13.9956 17.7027 13.9146 17.5267 13.8539 17.3612C13.6312 17.1335 13.4895 16.73 13.4288 16.1505C13.3681 15.5504 13.3073 15.033 13.2466 14.5984C13.2466 14.3501 13.2567 14.1638 13.277 14.0396C13.2163 13.8741 13.1758 13.7499 13.1555 13.6671C13.1555 13.5843 13.1454 13.4912 13.1252 13.3877L13.0037 13.9776C12.943 14.081 12.8114 14.4846 12.609 15.1882L11.9714 17.206L11.4248 19.1617C11.3236 19.2237 11.2021 19.4721 11.0604 19.9067C10.8783 20.3827 10.7669 20.6413 10.7264 20.6827C10.7062 20.7241 10.6758 20.7862 10.6354 20.869C10.4734 21.2001 10.2912 21.4691 10.0888 21.6761C9.54227 22.1935 8.97549 22.3383 8.38846 22.1107C7.82167 21.9037 7.4067 21.4898 7.14355 20.869C7.00186 20.5172 6.89052 20.2895 6.80955 20.1861C6.78931 20.0205 6.67798 19.7308 6.47556 19.3169C6.33386 18.9237 6.22253 18.427 6.14156 17.8268C6.04034 17.6406 5.9695 17.3198 5.92901 16.8645C5.8278 16.6783 5.75695 16.4092 5.71647 16.0574C5.67598 15.7056 5.61526 15.3641 5.53429 15.033C5.43307 14.6812 5.36223 14.2569 5.32174 13.7603C5.28126 13.3877 5.12944 12.7048 4.86629 11.7114C4.80556 11.6494 4.72459 11.4424 4.62338 11.0906C4.5829 11.4217 4.56265 11.608 4.56265 11.6494C4.56265 11.6701 4.48168 12.1771 4.31975 13.1704C4.36023 13.2118 4.35011 13.5223 4.28938 14.1017C4.16793 14.4949 4.09708 14.9088 4.07684 15.3434C3.9149 16.461 3.84405 17.2991 3.86429 17.8579C3.92502 18.0441 3.92502 18.2718 3.86429 18.5408C3.82381 18.7891 3.78332 19.0478 3.74284 19.3169C3.7226 19.5652 3.68211 19.7929 3.62138 19.9998V20.2171C3.56066 20.8586 3.55054 21.2208 3.59102 21.3036C3.59102 21.5312 3.49993 21.8106 3.31775 22.1417C3.15581 22.4729 2.89266 22.597 2.5283 22.5142C1.88054 22.3487 1.50606 22.2245 1.40485 22.1417C1.18218 21.7692 1.07085 21.4381 1.07085 21.1484V19.6583L1.13158 19.0996C1.11133 19.0375 1.12145 18.7995 1.16194 18.3856C1.1417 18.3649 1.13158 18.1993 1.13158 17.8889C1.13158 17.5578 1.10121 17.3095 1.04048 17.1439V16.8335C1 16.1298 0.989879 15.7263 1.01012 15.6228C1.05061 15.4986 1.05061 15.2399 1.01012 14.8467C1.09109 14.8467 1.1417 14.6915 1.16194 14.3811C1.18218 14.05 1.21254 13.6982 1.25303 13.3257L1.46557 13.2325C1.42509 13.2118 1.41497 12.9221 1.43521 12.3633C1.45545 12.2185 1.50606 11.846 1.58703 11.2458C1.668 10.6457 1.69836 10.2421 1.67812 10.0352C1.67812 9.80751 1.78945 9.45569 2.01212 8.97971C2.43721 7.67592 2.65987 6.84812 2.68012 6.49631C2.7206 6.14449 2.78133 5.83407 2.8623 5.56503C2.94327 4.8821 3.13557 4.31299 3.4392 3.8577C3.5809 3.40241 3.84405 3.13337 4.22866 3.05059L4.59302 2.77121H4.62338C5.00799 2.48148 5.69622 2.44009 6.6881 2.64704C7.53828 3.04024 8.00385 3.52658 8.08482 4.10604C8.00385 4.39577 8.03422 5.39947 8.17591 7.11716V7.39654Z" fill="#232D18" stroke="#232D18" stroke-width="0.5"/>
<path d="M51.0904 7.52027L50.9861 7.07733C50.9861 5.91354 50.8559 5.10583 50.5953 4.65421C50.5606 4.63684 50.5345 4.62816 50.5172 4.62816C50.4303 4.62816 50.3695 4.73238 50.3348 4.94082C50.1263 5.3577 49.9353 5.93091 49.7616 6.66045C49.6921 6.72993 49.6139 6.99048 49.5271 7.4421C49.2665 8.60589 49.0668 9.32675 48.9278 9.60467L48.8757 9.99549C48.7541 10.395 48.7454 10.6556 48.8496 10.7771C48.8496 10.7077 49.2144 10.5948 49.9439 10.4384C50.6735 10.2821 51.0556 10.1952 51.0904 10.1779C51.1251 10.1605 51.1338 10.0737 51.1164 9.91733C51.1164 9.761 51.1685 9.51782 51.2727 9.18779C51.3075 9.17042 51.2814 9.10962 51.1946 9.0054C51.1251 8.88381 51.099 8.70143 51.1164 8.45825C51.0817 8.35403 51.0643 8.20638 51.0643 8.01531C51.0817 7.82424 51.0904 7.65923 51.0904 7.52027ZM53.8001 7.70265L53.8522 8.09348C53.9564 8.12822 53.9912 8.1977 53.9564 8.30191C53.9217 8.40614 53.913 8.55378 53.9304 8.74485C53.9825 9.43965 54.0693 9.96944 54.1909 10.3342C54.1909 10.5426 54.2256 10.8119 54.2951 11.1419C54.382 11.4546 54.4167 11.6196 54.3993 11.637C54.382 11.6543 54.3733 11.7238 54.3733 11.8454V12.1059C54.2691 11.8801 54.2604 12.0538 54.3472 12.627C54.4167 12.766 54.4688 12.9831 54.5036 13.2784C54.5557 13.5737 54.6599 14.0948 54.8162 14.8417C55.1463 16.1445 55.3113 16.8653 55.3113 17.0043C55.3113 17.1259 55.2592 17.3343 55.1549 17.6296C55.0507 17.9075 54.8944 18.1073 54.686 18.2289L53.5135 18.307C53.2529 18.2376 52.9316 18.0378 52.5494 17.7078C52.3236 17.482 52.1847 17.2301 52.1326 16.9522L51.8199 16.0663C51.8025 15.9621 51.7938 15.8058 51.7938 15.5973C51.7765 15.5799 51.7504 15.467 51.7157 15.2586C51.7504 15.1718 51.707 14.9981 51.5854 14.7375V14.2685C51.6375 14.1817 51.6028 14.0166 51.4812 13.7735L51.3509 12.9397C51.3857 12.8702 51.2814 12.7226 51.0382 12.4968C50.8645 12.5836 50.6387 12.6531 50.3608 12.7052H49.5271C49.197 12.7052 48.9191 12.7139 48.6933 12.7313C48.5717 12.7313 48.5109 13.0787 48.5109 13.7735C48.4935 13.8256 48.4501 13.9472 48.3806 14.1382C48.3806 14.2251 48.3459 14.364 48.2764 14.5551C48.2069 14.7462 48.1722 14.9112 48.1722 15.0502C48.1722 15.1718 48.1548 15.2586 48.1201 15.3107C48.0332 15.4844 47.9117 15.9013 47.7553 16.5614C47.599 17.204 47.4774 17.6296 47.3905 17.8381C47.3211 18.0465 47.3124 18.1768 47.3645 18.2289C47.3819 18.281 47.3558 18.3678 47.2863 18.4894C47.2168 18.611 47.1387 18.6979 47.0518 18.75C46.8608 18.75 46.6523 18.7066 46.4265 18.6197C46.2007 18.5329 45.9315 18.4894 45.6188 18.4894C45.393 18.4547 45.1932 18.2289 45.0195 17.812C44.9848 17.6904 44.9587 17.5862 44.9414 17.4993C44.9761 17.4472 45.0022 17.317 45.0195 17.1085C44.898 17.0217 44.8372 16.8566 44.8372 16.6135L44.8632 16.2487C44.8632 16.0924 44.9066 15.9447 44.9935 15.8058C44.9761 15.8058 45.0109 15.6581 45.0977 15.3628C44.9935 15.2933 45.0543 14.7636 45.2801 13.7735C45.2801 13.5303 45.3583 13.1742 45.5146 12.7052C45.5841 12.3926 45.6188 12.1841 45.6188 12.0799C45.6362 11.9236 45.6535 11.828 45.6709 11.7933C45.6883 11.7412 45.7057 11.6804 45.723 11.6109C45.9141 11.0898 46.0183 10.7337 46.0357 10.5426C46.0531 10.3342 46.192 9.91733 46.4526 9.29201C46.5047 9.18779 46.5307 9.03146 46.5307 8.82302C46.5307 8.61458 46.5568 8.44956 46.6089 8.32797C46.661 8.20638 46.7044 8.06742 46.7392 7.91109C46.7913 7.75476 46.8608 7.58975 46.9476 7.41605C46.8955 7.36394 46.9129 7.19023 46.9997 6.89495C46.9997 6.79072 47.0692 6.5736 47.2082 6.24357C47.3471 5.89617 47.4166 5.67904 47.4166 5.59219C47.434 5.48798 47.4513 5.4185 47.4687 5.38376C47.5035 5.33165 47.5382 5.25348 47.5729 5.14926C47.6077 5.04504 47.6598 4.93213 47.7293 4.81055C47.7987 4.68895 47.8335 4.58473 47.8335 4.49788C47.8509 4.41104 47.903 4.26339 47.9898 4.05495C47.9898 3.93336 48.0159 3.77703 48.068 3.58596C48.1201 3.53385 48.233 3.36883 48.4067 3.09091C48.4067 2.98669 48.5543 2.82168 48.8496 2.59587C49.1623 2.37006 49.3534 2.21373 49.4228 2.12688L50.7777 1.91844C50.7951 1.77948 50.8993 1.57104 51.0904 1.29312C51.6288 1.03257 52.176 0.945719 52.7318 1.03257C52.7492 1.03257 52.7839 1.04125 52.836 1.05862C52.9055 1.07599 52.9837 1.09336 53.0705 1.11073C53.1748 1.1281 53.2877 1.15416 53.4093 1.1889C53.5482 1.22364 53.6177 1.34523 53.6177 1.55367L53.5916 4.65421C53.6264 4.79317 53.6524 5.15795 53.6698 5.74853C53.7045 6.32174 53.7567 6.73862 53.8261 6.99917C53.8261 7.39868 53.8174 7.63317 53.8001 7.70265Z" fill="#232D18" stroke="#232D18" stroke-width="0.5"/>
</svg>
